<?xml version="1.0" encoding="UTF-8" standalone="no"?>
<!-- Created with Inkscape (http://www.inkscape.org/) -->

<svg
   xmlns:dc="http://purl.org/dc/elements/1.1/"
   xmlns:cc="http://creativecommons.org/ns#"
   xmlns:rdf="http://www.w3.org/1999/02/22-rdf-syntax-ns#"
   xmlns:svg="http://www.w3.org/2000/svg"
   xmlns="http://www.w3.org/2000/svg"
   xmlns:sodipodi="http://sodipodi.sourceforge.net/DTD/sodipodi-0.dtd"
   xmlns:inkscape="http://www.inkscape.org/namespaces/inkscape"
   width="90"
   height="90"
   viewBox="0 0 23.812499 23.812501"
   version="1.1"
   id="svg2002"
   inkscape:version="0.92.2 (5c3e80d, 2017-08-06)"
   sodipodi:docname="info_icon.svg"
   inkscape:export-filename="C:\Users\Owner\Documents\icons\info_icon.png"
   inkscape:export-xdpi="96"
   inkscape:export-ydpi="96">
  <defs
     id="defs1996" />
  <sodipodi:namedview
     id="base"
     pagecolor="#ffffff"
     bordercolor="#666666"
     borderopacity="1.0"
     inkscape:pageopacity="0.0"
     inkscape:pageshadow="2"
     inkscape:zoom="2.8"
     inkscape:cx="4.41919"
     inkscape:cy="32.02113"
     inkscape:document-units="px"
     inkscape:current-layer="layer1"
     showgrid="false"
     units="px"
     inkscape:pagecheckerboard="true"
     inkscape:window-width="1920"
     inkscape:window-height="986"
     inkscape:window-x="-11"
     inkscape:window-y="-11"
     inkscape:window-maximized="1"
     fit-margin-top="0"
     fit-margin-left="0"
     fit-margin-right="0"
     fit-margin-bottom="0" />
  <metadata
     id="metadata1999">
    <rdf:RDF>
      <cc:Work
         rdf:about="">
        <dc:format>image/svg+xml</dc:format>
        <dc:type
           rdf:resource="http://purl.org/dc/dcmitype/StillImage" />
        <dc:title></dc:title>
      </cc:Work>
    </rdf:RDF>
  </metadata>
  <g
     inkscape:label="Layer 1"
     inkscape:groupmode="layer"
     id="layer1"
     transform="translate(-8.031994,-265.34448)">
    <path
       style="fill:#ffffff;fill-opacity:1;stroke:none;stroke-width:0.9663043;stroke-opacity:1"
       d="m 19.938244,265.34448 a 11.90625,11.90625 0 0 0 -11.90625,11.90625 11.90625,11.90625 0 0 0 11.90625,11.90625 11.90625,11.90625 0 0 0 11.90625,-11.90625 11.90625,11.90625 0 0 0 -11.90625,-11.90625 z m 0.08061,3.67107 c 0.17364,0 0.334863,0.033 0.48369,0.0993 0.15711,0.066 0.28938,0.1572 0.396876,0.273 0.11577,0.1074 0.2067,0.2358 0.27285,0.38445 0.06615,0.1488 0.09921,0.31008 0.09921,0.48372 0,0.35553 -0.11988,0.6573 -0.359667,0.90537 -0.23151,0.2481 -0.529167,0.37206 -0.892968,0.37206 -0.363804,0 -0.665592,-0.12 -0.905373,-0.35967 -0.23979,-0.2397 -0.359667,-0.5457 -0.359667,-0.91776 0,-0.1818 0.03309,-0.34728 0.09921,-0.49611 0.06615,-0.1572 0.15711,-0.2895 0.27285,-0.39687 0.11577,-0.1074 0.24804,-0.1902 0.396876,-0.2481 0.15711,-0.066 0.322461,-0.0993 0.496095,-0.0993 z m 0.496092,4.78731 h 0.533301 v 9.35136 c 0,0.38034 0.0249,0.69453 0.07443,0.9426 0.04962,0.2397 0.13641,0.42993 0.26046,0.57051 0.1323,0.1323 0.310059,0.2232 0.533301,0.2727 0.23151,0.0495 0.525033,0.0744 0.880566,0.0744 v 0.4713 h -5.556249 v -0.4713 c 0.355533,0 0.644922,-0.024 0.868164,-0.0744 0.23151,-0.0495 0.409278,-0.1407 0.533301,-0.2727 0.1323,-0.1407 0.21912,-0.33075 0.26046,-0.57051 0.04962,-0.2481 0.0744,-0.56226 0.0744,-0.9426 v -6.07713 c 0,-0.5457 -0.06201,-0.95913 -0.18603,-1.24023 -0.11574,-0.2811 -0.338997,-0.42168 -0.669726,-0.42168 -0.11577,0 -0.2439,0.018 -0.384471,0.0495 -0.14055,0.033 -0.305925,0.0828 -0.496095,0.1488 l -0.16122,-0.44649 z"
       id="path2547"
       inkscape:connector-curvature="0" />
  </g>
</svg>
