<?xml version="1.0" encoding="UTF-8" standalone="no"?>
<!-- Created with Inkscape (http://www.inkscape.org/) -->

<svg
   xmlns:dc="http://purl.org/dc/elements/1.1/"
   xmlns:cc="http://creativecommons.org/ns#"
   xmlns:rdf="http://www.w3.org/1999/02/22-rdf-syntax-ns#"
   xmlns:svg="http://www.w3.org/2000/svg"
   xmlns="http://www.w3.org/2000/svg"
   xmlns:sodipodi="http://sodipodi.sourceforge.net/DTD/sodipodi-0.dtd"
   xmlns:inkscape="http://www.inkscape.org/namespaces/inkscape"
   width="30"
   height="30"
   viewBox="0 0 7.9374996 7.9375002"
   version="1.1"
   id="svg2560"
   inkscape:version="0.92.2 (5c3e80d, 2017-08-06)"
   sodipodi:docname="map_icon_small.svg"
   inkscape:export-filename="C:\Users\Owner\Documents\icons\chat_icon.png"
   inkscape:export-xdpi="96"
   inkscape:export-ydpi="96">
  <defs
     id="defs2554" />
  <sodipodi:namedview
     id="base"
     pagecolor="#ffffff"
     bordercolor="#666666"
     borderopacity="1.0"
     inkscape:pageopacity="0.0"
     inkscape:pageshadow="2"
     inkscape:zoom="7.919596"
     inkscape:cx="15.553952"
     inkscape:cy="6.4602898"
     inkscape:document-units="px"
     inkscape:current-layer="layer1"
     showgrid="false"
     units="px"
     inkscape:pagecheckerboard="true"
     objecttolerance="1"
     gridtolerance="10"
     inkscape:window-width="958"
     inkscape:window-height="974"
     inkscape:window-x="-10"
     inkscape:window-y="0"
     inkscape:window-maximized="0" />
  <metadata
     id="metadata2557">
    <rdf:RDF>
      <cc:Work
         rdf:about="">
        <dc:format>image/svg+xml</dc:format>
        <dc:type
           rdf:resource="http://purl.org/dc/dcmitype/StillImage" />
        <dc:title></dc:title>
      </cc:Work>
    </rdf:RDF>
  </metadata>
  <g
     inkscape:label="Layer 1"
     inkscape:groupmode="layer"
     id="layer1"
     transform="translate(0,-289.06249)">
    <rect
       style="fill:#ed7d31;fill-opacity:1;stroke:none;stroke-width:0.0527364;stroke-opacity:1"
       id="rect1418"
       width="7.9375"
       height="7.9375"
       x="0.0082925232"
       y="289.07581"
       ry="0.9455744" />
    <g
       id="g818"
       transform="matrix(0.61251617,0,0,0.61251617,-8.7014269,122.03822)">
      <path
         inkscape:connector-curvature="0"
         inkscape:export-ydpi="96"
         inkscape:export-xdpi="96"
         id="rect852"
         d="m 16.182992,276.12533 v 5.08703 l 2.257743,1.0356 2.25826,-1.0356 2.257744,1.0356 2.25826,-1.0356 v -5.08703 l -2.25826,0.93535 -2.257744,-0.93535 -1.419034,0.58756 c 3.5e-5,0.003 0.001,0.006 0.001,0.009 -1e-6,0.15893 -0.0663,0.36131 -0.164848,0.57257 l 1.582849,-0.60306 2.244824,0.91106 1.819527,-0.81649 v 4.18579 l -1.843297,0.75758 -2.221053,-1.01751 -2.268595,0.99373 -1.795756,-0.7338 v -4.18579 l 1.35444,0.58032 c -0.103284,-0.20825 -0.177697,-0.40922 -0.195338,-0.5736 z m 2.33009,0.18346 c -0.270887,0 -0.490408,0.21952 -0.490409,0.4904 10e-7,0.27089 0.310431,0.75526 0.490409,0.99839 0.196892,-0.26638 0.490409,-0.7275 0.49041,-0.99839 -1e-6,-0.27088 -0.219522,-0.4904 -0.49041,-0.4904 z m 0,0.20722 a 0.28329816,0.28329816 0 0 1 0.283187,0.28318 0.28329816,0.28329816 0 0 1 -0.283187,0.28371 0.28329816,0.28329816 0 0 1 -0.283186,-0.28371 0.28329816,0.28329816 0 0 1 0.283186,-0.28318 z"
         style="fill:#ffffff;fill-opacity:1;stroke:none;stroke-width:0.21991852;stroke-opacity:1" />
      <g
         inkscape:export-ydpi="96"
         inkscape:export-xdpi="96"
         style="fill:#ffffff;stroke:none"
         transform="matrix(9.9599251e-4,0,0,-9.9599251e-4,18.25923,281.92436)"
         id="g842">
        <path
           style="fill:#ffffff"
           inkscape:connector-curvature="0"
           d="m 187,4092 c -11,-2 -16,-10 -13,-20 2,-9 7,-27 11,-39 6,-21 13,-69 18,-123 1,-14 -7,-45 -19,-70 -27,-56 -38,-106 -25,-114 5,-3 8,-14 6,-24 -1,-9 2,-25 7,-35 12,-24 -10,-95 -34,-102 -10,-4 -18,-11 -18,-16 0,-5 -6,-9 -14,-9 -9,0 -14,-12 -15,-37 0,-32 -4,-76 -10,-105 0,-4 -8,-4 -18,-1 -11,5 -14,3 -8,-6 4,-8 2,-16 -5,-21 -20,-13 -32,-160 -18,-224 3,-11 -1,-31 -8,-45 -7,-14 -11,-35 -8,-47 3,-12 1,-25 -5,-28 -8,-5 -6,-17 5,-37 8,-17 13,-33 10,-36 -3,-3 1,-12 9,-20 10,-9 13,-27 11,-49 -3,-23 3,-48 20,-79 13,-26 24,-52 24,-60 0,-8 10,-21 22,-30 13,-8 34,-43 48,-78 22,-54 29,-62 53,-64 15,-1 34,-9 43,-17 8,-9 21,-16 28,-16 18,0 66,-24 66,-32 0,-5 8,-8 19,-8 10,0 24,-7 31,-15 7,-9 24,-14 39,-13 23,3 26,-1 29,-29 4,-37 24,-43 57,-19 17,12 24,11 55,-5 19,-11 36,-24 36,-29 1,-6 2,-14 3,-19 2,-14 55,4 91,31 17,12 70,70 118,126 90,109 137,142 224,157 21,3 43,11 50,18 7,7 34,28 61,47 45,32 51,33 140,34 105,1 225,-10 241,-22 6,-5 25,-14 41,-20 171,-61 240,-88 294,-114 35,-16 72,-31 81,-33 17,-3 160,-80 255,-138 28,-16 82,-64 122,-105 56,-58 85,-100 131,-191 66,-127 77,-167 56,-196 -8,-10 -14,-22 -14,-25 0,-7 59,-4 67,4 3,3 20,-2 37,-11 17,-10 39,-18 49,-19 9,-1 18,-2 20,-4 1,-1 9,-3 17,-5 8,-2 23,-6 33,-10 12,-5 17,-2 17,8 0,23 51,16 124,-17 40,-18 56,-30 53,-40 -8,-21 43,-64 86,-71 20,-4 37,-11 37,-15 0,-5 9,-12 20,-15 11,-3 20,-12 20,-19 0,-8 26,-35 58,-62 71,-61 74,-64 121,-147 20,-37 41,-64 44,-60 4,3 7,-3 7,-15 0,-11 4,-24 10,-27 5,-3 10,-16 10,-28 2,-72 11,-112 34,-147 26,-40 26,-60 -1,-91 -11,-13 -11,-18 -1,-27 24,-19 87,-41 93,-32 3,5 24,-4 46,-20 45,-32 69,-30 69,6 0,53 59,104 121,106 34,1 47,14 30,31 -6,6 -11,24 -11,39 0,19 -5,28 -16,28 -8,0 -13,3 -10,8 2,4 -4,24 -13,45 -16,35 -17,42 -3,85 30,93 124,197 170,189 13,-3 22,1 22,8 0,7 11,20 25,29 14,9 25,25 25,36 0,11 6,20 14,20 15,0 56,70 56,95 0,8 6,15 13,15 6,0 47,14 91,31 43,16 90,32 105,34 14,3 43,9 63,13 20,5 92,8 160,7 127,-3 153,-6 164,-18 4,-4 17,-7 29,-7 12,0 33,-8 46,-19 13,-10 49,-30 80,-45 43,-20 62,-24 80,-17 40,15 118,109 151,180 16,36 41,80 54,98 19,25 24,45 25,95 1,48 8,75 29,115 l 28,53 -41,11 c -53,14 -72,18 -122,25 -22,4 -42,10 -45,14 -3,4 -16,10 -30,13 -14,4 -38,18 -54,32 -18,15 -36,23 -45,20 -19,-8 -20,-8 -48,-6 -13,0 -23,7 -23,14 0,8 -12,15 -27,15 -45,3 -67,8 -70,18 -2,6 -28,7 -66,2 -137,-18 -298,-9 -386,21 -56,20 -127,31 -231,36 -72,3 -104,11 -167,40 -57,25 -73,47 -69,89 3,21 -2,30 -20,36 -13,5 -45,28 -70,52 -50,46 -45,45 -159,53 -75,5 -119,11 -155,19 -8,2 -29,7 -46,11 -17,4 -51,24 -75,46 -50,45 -104,73 -124,65 -24,-9 -95,34 -125,76 l -30,41 20,22 c 26,27 25,41 -4,90 -20,33 -22,41 -10,50 12,8 12,14 1,36 -15,28 -28,71 -33,107 -1,13 -10,34 -18,47 -10,15 -11,26 -4,33 7,7 -8,14 -48,23 -66,15 -117,58 -127,108 -4,21 -18,38 -45,55 -37,23 -76,64 -84,87 -2,5 -20,10 -41,11 -21,1 -40,5 -43,10 -8,13 -24,9 -22,-4 3,-12 -9,-13 -82,-8 -14,1 -48,11 -77,22 l -52,20 -45,-28 c -28,-18 -45,-36 -46,-49 -1,-36 -15,-45 -76,-51 -48,-5 -64,-3 -77,10 -15,15 -18,14 -38,-13 -12,-16 -33,-32 -48,-36 -14,-4 -51,-32 -83,-63 -31,-31 -69,-67 -85,-79 -15,-12 -48,-40 -72,-62 -24,-22 -53,-41 -65,-43 -11,-2 -23,-12 -26,-23 -4,-18 -13,-20 -70,-20 -36,1 -89,7 -118,14 -29,7 -56,11 -59,7 -3,-3 -17,4 -31,14 -13,11 -31,20 -39,20 -8,0 -27,7 -42,14 -15,8 -39,17 -52,19 -13,2 -51,17 -84,32 -33,15 -67,27 -75,27 -8,0 -49,11 -90,25 -41,14 -84,27 -95,29 -11,2 -29,8 -40,13 -78,38 -161,71 -180,71 -13,0 -26,7 -29,16 -3,9 -12,14 -20,11 -8,-3 -29,8 -47,24 -18,16 -37,29 -43,29 -18,1 -90,59 -92,74 -1,8 -6,22 -11,31 -6,9 -7,34 -3,54 4,20 3,46 0,57 -5,12 -2,26 7,36 11,12 13,26 8,45 -5,15 -7,36 -6,45 1,9 -7,22 -18,28 -12,6 -21,17 -21,25 0,13 -59,17 -113,7 z"
           id="path840" />
      </g>
    </g>
  </g>
</svg>
