<?xml version="1.0" encoding="UTF-8" standalone="no"?>
<!-- Created with Inkscape (http://www.inkscape.org/) -->

<svg
   xmlns:dc="http://purl.org/dc/elements/1.1/"
   xmlns:cc="http://creativecommons.org/ns#"
   xmlns:rdf="http://www.w3.org/1999/02/22-rdf-syntax-ns#"
   xmlns:svg="http://www.w3.org/2000/svg"
   xmlns="http://www.w3.org/2000/svg"
   xmlns:sodipodi="http://sodipodi.sourceforge.net/DTD/sodipodi-0.dtd"
   xmlns:inkscape="http://www.inkscape.org/namespaces/inkscape"
   width="50"
   height="50"
   viewBox="0 0 13.229166 13.229167"
   version="1.1"
   id="svg8"
   inkscape:version="0.92.2 (5c3e80d, 2017-08-06)"
   sodipodi:docname="settings_icon.svg">
  <defs
     id="defs2" />
  <sodipodi:namedview
     id="base"
     pagecolor="#ffffff"
     bordercolor="#666666"
     borderopacity="1.0"
     inkscape:pageopacity="0.0"
     inkscape:pageshadow="2"
     inkscape:zoom="11.2"
     inkscape:cx="15.340393"
     inkscape:cy="20.147592"
     inkscape:document-units="mm"
     inkscape:current-layer="layer1"
     showgrid="false"
     inkscape:pagecheckerboard="true"
     units="px"
     inkscape:window-width="1920"
     inkscape:window-height="986"
     inkscape:window-x="-11"
     inkscape:window-y="-11"
     inkscape:window-maximized="1" />
  <metadata
     id="metadata5">
    <rdf:RDF>
      <cc:Work
         rdf:about="">
        <dc:format>image/svg+xml</dc:format>
        <dc:type
           rdf:resource="http://purl.org/dc/dcmitype/StillImage" />
        <dc:title />
      </cc:Work>
    </rdf:RDF>
  </metadata>
  <g
     inkscape:label="Layer 1"
     inkscape:groupmode="layer"
     id="layer1"
     transform="translate(0,-283.77082)">
    <path
       style="fill:#ffffff;fill-opacity:1;stroke:none;stroke-width:0.26359001;stroke-opacity:1"
       d="m 5.1865354,286.02596 a 4.1303611,4.1303611 0 0 0 -0.8701724,0.36464 1.2538594,1.2538594 0 0 1 -0.2920294,1.30902 1.2538594,1.2538594 0 0 1 -1.3111746,0.29203 4.1303611,4.1303611 0 0 0 -0.3581798,0.87286 1.2538595,1.2538595 0 0 1 0.7179728,1.13209 1.2538595,1.2538595 0 0 1 -0.7201241,1.13262 4.1303611,4.1303611 0 0 0 0.3657091,0.87017 1.2538595,1.2538595 0 0 1 1.3057966,0.29364 1.2538595,1.2538595 0 0 1 0.2925672,1.30795 4.1303611,4.1303611 0 0 0 0.8733993,0.35872 1.2538595,1.2538595 0 0 1 1.130471,-0.71582 1.2538595,1.2538595 0 0 1 1.1320846,0.71797 4.1303611,4.1303611 0 0 0 0.8707105,-0.36463 1.2538595,1.2538595 0 0 1 0.2936427,-1.30419 1.2538595,1.2538595 0 0 1 1.3084855,-0.2931 4.1303611,4.1303611 0 0 0 0.3646336,-0.86963 1.2538593,1.2538593 0 0 1 -0.7217377,-1.1337 1.2538593,1.2538593 0 0 1 0.7211997,-1.1337 4.1303611,4.1303611 0 0 0 -0.3640956,-0.87071 1.2538594,1.2538594 0 0 1 -1.3084855,-0.29203 1.2538594,1.2538594 0 0 1 -0.2909536,-1.31225 4.1303611,4.1303611 0 0 0 -0.8728615,-0.35872 1.2538596,1.2538596 0 0 1 -0.00215,0.004 1.2538596,1.2538596 0 0 1 -0.055932,0.10541 1.2538594,1.2538594 0 0 1 -0.00108,0.002 1.2538596,1.2538596 0 0 1 -0.00161,0.003 1.2538596,1.2538596 0 0 1 -0.063999,0.0957 1.2538594,1.2538594 0 0 1 -0.010219,0.0129 1.2538596,1.2538596 0 0 1 -0.069377,0.0839 1.2538594,1.2538594 0 0 1 -0.011294,0.0124 1.2538596,1.2538596 0 0 1 -0.074755,0.0742 1.2538594,1.2538594 0 0 1 -0.018823,0.0167 1.2538596,1.2538596 0 0 1 -0.074755,0.0602 1.2538594,1.2538594 0 0 1 -0.027966,0.0204 1.2538596,1.2538596 0 0 1 -0.07852,0.0511 1.2538594,1.2538594 0 0 1 -0.022588,0.0129 1.2538596,1.2538596 0 0 1 -0.085511,0.0446 1.2538594,1.2538594 0 0 1 -0.03442,0.0151 1.2538596,1.2538596 0 0 1 -0.074218,0.0301 1.2538594,1.2538594 0 0 1 -0.047327,0.0161 1.2538596,1.2538596 0 0 1 -0.075831,0.0215 1.2538594,1.2538594 0 0 1 -0.043025,0.01 1.2538596,1.2538596 0 0 1 -0.077444,0.014 1.2538594,1.2538594 0 0 1 -0.052705,0.006 1.2538596,1.2538596 0 0 1 -0.075293,0.006 1.2538594,1.2538594 0 0 1 -0.053781,0.002 1.2538596,1.2538596 0 0 1 -0.2490046,-0.0253 1.2538596,1.2538596 0 0 1 -0.8852311,-0.69754 z m 1.1342357,2.48037 a 1.4874215,1.4874215 0 0 1 1.4875755,1.48758 1.4874215,1.4874215 0 0 1 -1.4875755,1.48757 1.4874215,1.4874215 0 0 1 -1.4870374,-1.48757 1.4874215,1.4874215 0 0 1 1.4870374,-1.48758 z"
       id="path4570"
       inkscape:connector-curvature="0"
       inkscape:export-xdpi="96"
       inkscape:export-ydpi="96" />
  </g>
</svg>
