<?xml version="1.0" encoding="UTF-8" standalone="no"?>
<!-- Created with Inkscape (http://www.inkscape.org/) -->

<svg
   xmlns:dc="http://purl.org/dc/elements/1.1/"
   xmlns:cc="http://creativecommons.org/ns#"
   xmlns:rdf="http://www.w3.org/1999/02/22-rdf-syntax-ns#"
   xmlns:svg="http://www.w3.org/2000/svg"
   xmlns="http://www.w3.org/2000/svg"
   xmlns:sodipodi="http://sodipodi.sourceforge.net/DTD/sodipodi-0.dtd"
   xmlns:inkscape="http://www.inkscape.org/namespaces/inkscape"
   width="150"
   height="150"
   viewBox="0 0 39.687498 39.687501"
   version="1.1"
   id="svg8"
   inkscape:version="0.92.2 (5c3e80d, 2017-08-06)"
   sodipodi:docname="settings_icon_1.svg">
  <defs
     id="defs2" />
  <sodipodi:namedview
     id="base"
     pagecolor="#ffffff"
     bordercolor="#666666"
     borderopacity="1.0"
     inkscape:pageopacity="0.0"
     inkscape:pageshadow="2"
     inkscape:zoom="3.959798"
     inkscape:cx="33.361451"
     inkscape:cy="79.776387"
     inkscape:document-units="mm"
     inkscape:current-layer="layer1"
     showgrid="false"
     inkscape:pagecheckerboard="true"
     units="px"
     inkscape:window-width="1920"
     inkscape:window-height="986"
     inkscape:window-x="-11"
     inkscape:window-y="-11"
     inkscape:window-maximized="1" />
  <metadata
     id="metadata5">
    <rdf:RDF>
      <cc:Work
         rdf:about="">
        <dc:format>image/svg+xml</dc:format>
        <dc:type
           rdf:resource="http://purl.org/dc/dcmitype/StillImage" />
        <dc:title></dc:title>
      </cc:Work>
    </rdf:RDF>
  </metadata>
  <g
     inkscape:label="Layer 1"
     inkscape:groupmode="layer"
     id="layer1"
     transform="translate(0,-257.31249)">
    <rect
       style="fill:#70ad47;fill-opacity:1;stroke:none;stroke-width:0.26458332;stroke-opacity:1"
       id="rect825"
       width="39.756344"
       height="39.689526"
       x="0"
       y="257.31046"
       ry="4.8977332" />
    <g
       id="g823"
       transform="matrix(0.94724426,0,0,0.94724426,2.1546701,12.660992)">
      <path
         inkscape:export-ydpi="96"
         inkscape:export-xdpi="96"
         inkscape:connector-curvature="0"
         id="path4570"
         d="m 15.877316,266.38165 a 4.1303611,4.1303611 0 0 0 -0.870172,0.36464 1.2538594,1.2538594 0 0 1 -0.29203,1.30902 1.2538594,1.2538594 0 0 1 -1.311174,0.29203 4.1303611,4.1303611 0 0 0 -0.35818,0.87286 1.2538595,1.2538595 0 0 1 0.717973,1.13209 1.2538595,1.2538595 0 0 1 -0.720124,1.13262 4.1303611,4.1303611 0 0 0 0.365709,0.87017 1.2538595,1.2538595 0 0 1 1.305796,0.29364 1.2538595,1.2538595 0 0 1 0.292567,1.30795 4.1303611,4.1303611 0 0 0 0.8734,0.35872 1.2538595,1.2538595 0 0 1 1.130471,-0.71582 1.2538595,1.2538595 0 0 1 1.132084,0.71797 4.1303611,4.1303611 0 0 0 0.870711,-0.36463 1.2538595,1.2538595 0 0 1 0.293643,-1.30419 1.2538595,1.2538595 0 0 1 1.308485,-0.2931 4.1303611,4.1303611 0 0 0 0.364634,-0.86963 1.2538593,1.2538593 0 0 1 -0.721738,-1.1337 1.2538593,1.2538593 0 0 1 0.7212,-1.1337 4.1303611,4.1303611 0 0 0 -0.364096,-0.87071 1.2538594,1.2538594 0 0 1 -1.308485,-0.29203 1.2538594,1.2538594 0 0 1 -0.290954,-1.31225 4.1303611,4.1303611 0 0 0 -0.872862,-0.35872 1.2538596,1.2538596 0 0 1 -0.0022,0.004 1.2538596,1.2538596 0 0 1 -0.05593,0.10541 1.2538594,1.2538594 0 0 1 -0.0011,0.002 1.2538596,1.2538596 0 0 1 -0.0016,0.003 1.2538596,1.2538596 0 0 1 -0.064,0.0957 1.2538594,1.2538594 0 0 1 -0.01022,0.0129 1.2538596,1.2538596 0 0 1 -0.06938,0.0839 1.2538594,1.2538594 0 0 1 -0.01129,0.0124 1.2538596,1.2538596 0 0 1 -0.07475,0.0742 1.2538594,1.2538594 0 0 1 -0.01882,0.0167 1.2538596,1.2538596 0 0 1 -0.07475,0.0602 1.2538594,1.2538594 0 0 1 -0.02797,0.0204 1.2538596,1.2538596 0 0 1 -0.07852,0.0511 1.2538594,1.2538594 0 0 1 -0.02259,0.0129 1.2538596,1.2538596 0 0 1 -0.08551,0.0446 1.2538594,1.2538594 0 0 1 -0.03442,0.0151 1.2538596,1.2538596 0 0 1 -0.07422,0.0301 1.2538594,1.2538594 0 0 1 -0.04733,0.0161 1.2538596,1.2538596 0 0 1 -0.07583,0.0215 1.2538594,1.2538594 0 0 1 -0.04303,0.01 1.2538596,1.2538596 0 0 1 -0.07744,0.014 1.2538594,1.2538594 0 0 1 -0.0527,0.006 1.2538596,1.2538596 0 0 1 -0.07529,0.006 1.2538594,1.2538594 0 0 1 -0.05378,0.002 1.2538596,1.2538596 0 0 1 -0.249004,-0.0253 1.2538596,1.2538596 0 0 1 -0.885231,-0.69754 z m 1.134236,2.48037 a 1.4874215,1.4874215 0 0 1 1.487575,1.48758 1.4874215,1.4874215 0 0 1 -1.487575,1.48757 1.4874215,1.4874215 0 0 1 -1.487038,-1.48757 1.4874215,1.4874215 0 0 1 1.487038,-1.48758 z"
         style="fill:#ffffff;fill-opacity:1;stroke:none;stroke-width:0.26359001;stroke-opacity:1" />
      <path
         style="fill:#ffffff;fill-opacity:1;stroke:none;stroke-width:0.37010726;stroke-opacity:1"
         d="m 24.618412,269.59551 a 5.799279,5.7996176 0 0 0 -1.221774,0.51201 1.7604951,1.7605979 0 0 1 -0.410028,1.83805 1.7604951,1.7605979 0 0 1 -1.840968,0.41005 5.799279,5.7996176 0 0 0 -0.502907,1.22562 1.7604952,1.760598 0 0 1 1.008078,1.58962 1.7604952,1.760598 0 0 1 -1.011098,1.59036 5.799279,5.7996176 0 0 0 0.513478,1.22184 1.7604952,1.760598 0 0 1 1.833417,0.41232 1.7604952,1.760598 0 0 1 0.410782,1.83654 5.799279,5.7996176 0 0 0 1.226307,0.5037 1.7604952,1.760598 0 0 1 1.58725,-1.00512 1.7604952,1.760598 0 0 1 1.589515,1.00814 5.799279,5.7996176 0 0 0 1.222531,-0.512 1.7604952,1.760598 0 0 1 0.412293,-1.83126 1.7604952,1.760598 0 0 1 1.837193,-0.41156 5.799279,5.7996176 0 0 0 0.511968,-1.22108 1.760495,1.7605977 0 0 1 -1.013364,-1.59188 1.760495,1.7605977 0 0 1 1.012609,-1.59188 5.799279,5.7996176 0 0 0 -0.511213,-1.2226 1.7604951,1.7605979 0 0 1 -1.837193,-0.41005 1.7604951,1.7605979 0 0 1 -0.408517,-1.84259 5.799279,5.7996176 0 0 0 -1.225552,-0.50369 1.7604954,1.7605982 0 0 1 -0.0031,0.006 1.7604954,1.7605982 0 0 1 -0.07853,0.14802 1.7604951,1.7605979 0 0 1 -0.0015,0.003 1.7604954,1.7605982 0 0 1 -0.0022,0.004 1.7604954,1.7605982 0 0 1 -0.08986,0.13437 1.7604951,1.7605979 0 0 1 -0.01435,0.0181 1.7604954,1.7605982 0 0 1 -0.09741,0.1178 1.7604951,1.7605979 0 0 1 -0.01585,0.0174 1.7604954,1.7605982 0 0 1 -0.104953,0.10418 1.7604951,1.7605979 0 0 1 -0.02642,0.0234 1.7604954,1.7605982 0 0 1 -0.104953,0.0845 1.7604951,1.7605979 0 0 1 -0.03927,0.0286 1.7604954,1.7605982 0 0 1 -0.110247,0.0718 1.7604951,1.7605979 0 0 1 -0.03172,0.0181 1.7604954,1.7605982 0 0 1 -0.120062,0.0626 1.7604951,1.7605979 0 0 1 -0.04833,0.0212 1.7604954,1.7605982 0 0 1 -0.104209,0.0423 1.7604951,1.7605979 0 0 1 -0.06645,0.0226 1.7604954,1.7605982 0 0 1 -0.10647,0.0302 1.7604951,1.7605979 0 0 1 -0.06042,0.014 1.7604954,1.7605982 0 0 1 -0.10873,0.0197 1.7604951,1.7605979 0 0 1 -0.07399,0.008 1.7604954,1.7605982 0 0 1 -0.105712,0.008 1.7604951,1.7605979 0 0 1 -0.07551,0.003 1.7604954,1.7605982 0 0 1 -0.349617,-0.0355 1.7604954,1.7605982 0 0 1 -1.242919,-0.97944 z m 1.592537,3.4828 a 2.0884305,2.0885525 0 0 1 2.088646,2.08877 2.0884305,2.0885525 0 0 1 -2.088646,2.08876 2.0884305,2.0885525 0 0 1 -2.087892,-2.08876 2.0884305,2.0885525 0 0 1 2.087892,-2.08877 z"
         id="path816"
         inkscape:connector-curvature="0"
         inkscape:export-xdpi="96"
         inkscape:export-ydpi="96" />
      <path
         inkscape:export-ydpi="96"
         inkscape:export-xdpi="96"
         inkscape:connector-curvature="0"
         id="path818"
         d="m 12.437597,274.43311 a 8.4421128,8.4426057 0 0 0 -1.778558,0.74534 2.5627838,2.5629334 0 0 1 -0.596885,2.67568 2.5627838,2.5629334 0 0 1 -2.6799295,0.59692 8.4421128,8.4426057 0 0 0 -0.7320906,1.78416 2.5627839,2.5629336 0 0 1 1.4674769,2.31403 2.5627839,2.5629336 0 0 1 -1.4718732,2.31512 8.4421128,8.4426057 0 0 0 0.747479,1.77865 2.5627839,2.5629336 0 0 1 2.6689374,0.60023 2.5627839,2.5629336 0 0 1 0.597983,2.67348 8.4421128,8.4426057 0 0 0 1.785156,0.73324 2.5627839,2.5629336 0 0 1 2.310589,-1.46317 2.5627839,2.5629336 0 0 1 2.313885,1.46757 8.4421128,8.4426057 0 0 0 1.77966,-0.74533 2.5627839,2.5629336 0 0 1 0.600182,-2.66579 2.5627839,2.5629336 0 0 1 2.674434,-0.59912 8.4421128,8.4426057 0 0 0 0.745281,-1.77755 2.5627836,2.5629331 0 0 1 -1.475172,-2.31733 2.5627836,2.5629331 0 0 1 1.474073,-2.31732 8.4421128,8.4426057 0 0 0 -0.744182,-1.77976 2.5627838,2.5629334 0 0 1 -2.674434,-0.59692 2.5627838,2.5629334 0 0 1 -0.594685,-2.68229 8.4421128,8.4426057 0 0 0 -1.784058,-0.73323 2.5627842,2.5629339 0 0 1 -0.0045,0.009 2.5627842,2.5629339 0 0 1 -0.114317,0.21548 2.5627838,2.5629334 0 0 1 -0.0022,0.004 2.5627842,2.5629339 0 0 1 -0.0032,0.006 2.5627842,2.5629339 0 0 1 -0.13081,0.1956 2.5627838,2.5629334 0 0 1 -0.02089,0.0263 2.5627842,2.5629339 0 0 1 -0.141801,0.17148 2.5627838,2.5629334 0 0 1 -0.02307,0.0253 2.5627842,2.5629339 0 0 1 -0.152782,0.15166 2.5627838,2.5629334 0 0 1 -0.03846,0.0341 2.5627842,2.5629339 0 0 1 -0.152782,0.12301 2.5627838,2.5629334 0 0 1 -0.05717,0.0416 2.5627842,2.5629339 0 0 1 -0.160489,0.10452 2.5627838,2.5629334 0 0 1 -0.04618,0.0264 2.5627842,2.5629339 0 0 1 -0.174777,0.0911 2.5627838,2.5629334 0 0 1 -0.07035,0.0309 2.5627842,2.5629339 0 0 1 -0.151699,0.0616 2.5627838,2.5629334 0 0 1 -0.09673,0.0329 2.5627842,2.5629339 0 0 1 -0.15499,0.044 2.5627838,2.5629334 0 0 1 -0.08795,0.0204 2.5627842,2.5629339 0 0 1 -0.15828,0.0287 2.5627838,2.5629334 0 0 1 -0.107708,0.0116 2.5627842,2.5629339 0 0 1 -0.153887,0.0116 2.5627838,2.5629334 0 0 1 -0.109921,0.004 2.5627842,2.5629339 0 0 1 -0.508944,-0.0517 2.5627842,2.5629339 0 0 1 -1.809339,-1.42579 z m 2.318285,5.06997 a 3.0401651,3.0403427 0 0 1 3.040479,3.04066 3.0401651,3.0403427 0 0 1 -3.040479,3.04065 3.0401651,3.0403427 0 0 1 -3.039382,-3.04065 3.0401651,3.0403427 0 0 1 3.039382,-3.04066 z"
         style="fill:#ffffff;fill-opacity:1;stroke:none;stroke-width:0.53877169;stroke-opacity:1" />
    </g>
  </g>
</svg>
